<?xml version="1.0" encoding="utf-8"?>
<!-- Generator: Adobe Illustrator 16.0.0, SVG Export Plug-In . SVG Version: 6.00 Build 0)  -->
<!DOCTYPE svg PUBLIC "-//W3C//DTD SVG 1.1//EN" "http://www.w3.org/Graphics/SVG/1.1/DTD/svg11.dtd">
<svg version="1.1" xmlns="http://www.w3.org/2000/svg" xmlns:xlink="http://www.w3.org/1999/xlink" x="0px" y="0px" width="540px"
	 height="540px" viewBox="0 0 540 540" enable-background="new 0 0 540 540" xml:space="preserve">
<g id="Feet">
	
		<path id="BR" fill-rule="evenodd" clip-rule="evenodd" fill="#FEE4EC" stroke="#FEB2CC" stroke-width="8" stroke-miterlimit="10" d="
		M185.534,488.217c1.905-8.445-0.527-19.817,4.192-27.1c6.62-10.213,25.454-10.599,35.669-7.557
		c4.832,1.438,11.165,4.397,10.897,10.49c4.35,6.513,6.566,3.258,14.53,6.467c8.844,3.563,18.06,11.979,19.069,21.662
		c3.108,29.84-27.739,30.006-52.121,27.559C198.278,517.781,178.086,511.242,185.534,488.217
		C186.189,485.309,184.465,491.518,185.534,488.217z"/>
	
		<path id="BL_3_" fill-rule="evenodd" clip-rule="evenodd" fill="#FEE4EC" stroke="#FEB2CC" stroke-width="8" stroke-miterlimit="10" d="
		M142.456,487.363c1.905-8.447-0.527-19.817,4.193-27.1c6.619-10.213,25.453-10.6,35.669-7.558
		c4.831,1.44,11.165,4.398,10.897,10.491c4.349,6.512,6.565,3.257,14.529,6.466c8.844,3.563,18.06,11.979,19.07,21.663
		c3.108,29.837-27.74,30.005-52.121,27.557C155.199,516.926,135.009,510.387,142.456,487.363
		C143.111,484.454,141.388,490.662,142.456,487.363z"/>
	
		<path id="FR" fill-rule="evenodd" clip-rule="evenodd" fill="#FEE4EC" stroke="#FEB2CC" stroke-width="8" stroke-miterlimit="10" d="
		M326.065,492.17c0.708-8.629-3.285-19.55,0.372-27.419c5.13-11.036,23.727-14.047,34.266-12.458
		c4.986,0.751,11.67,2.798,12.255,8.868c5.215,5.843,6.957,2.31,15.289,4.376c9.256,2.295,19.557,9.345,21.905,18.792
		c7.239,29.113-23.283,33.581-47.769,34.559C342.808,519.668,321.902,516.01,326.065,492.17
		C326.309,489.198,325.468,495.587,326.065,492.17z"/>
	
		<path id="FL_3_" fill-rule="evenodd" clip-rule="evenodd" fill="#FEE4EC" stroke="#FEB2CC" stroke-width="8" stroke-miterlimit="10" d="
		M292.274,491.53c1.906-8.444-0.526-19.816,4.193-27.099c6.619-10.213,25.453-10.601,35.669-7.559
		c4.831,1.441,11.165,4.398,10.897,10.492c4.349,6.513,6.565,3.256,14.53,6.465c8.844,3.563,18.06,11.981,19.069,21.664
		c3.108,29.838-27.74,30.006-52.121,27.558C305.019,521.096,284.828,514.557,292.274,491.53
		C292.931,488.623,291.207,494.832,292.274,491.53z"/>
</g>
<g id="body_1_">
	<path fill="#FEE4EC" stroke="#FDB1CB" stroke-width="5" stroke-miterlimit="10" d="M286.484,54.207
		c-3.07-1.758-20.018-12.468-22.944-9.847c-2.985,2.683,3.651,12.884,5.05,15.37c-12.568-1.76-24.935-4.641-37.32-7.35
		c4.149,6.44,9.292,11.953,15.43,16.54c-16.814,4.703-41.618-17.801-54.48-24.24c2.712,9.243,10.12,15.984,14.06,24.6
		c-12.676-5.418-25.352-10.836-38.03-16.25c0.143,1.063,9.839,16.985,8.79,16.92c-26.98-1.649-52.543,1.055-78.12,10.25
		c10.529,1.83,21.335,2.275,31.57,5.62c-29.499,6.261-55.978,22.289-72.52,47.88c7.404-2.392,14.994-3.722,22.77-3.99
		c-23.104,13.825-37.822,37.255-48.55,61.28c6.077-4.944,12.63-9.135,19.66-12.57c-14.192,16.304-29.799,32.798-34.28,54.76
		c6.485-5.498,13.529-10.151,21.13-13.96c-13.809,18.285-23.967,39.345-29.05,61.72c4.898-3.438,10.152-6.165,15.76-8.181
		c-0.765,1.265-15.92,35.313-15.76,50.073c2.009-1.365,7.192-5.942,9.53-6.583c3.258,2.522-7.91,50.898-5.68,59.75
		c2.228-7.883,12.934-20.054,20.833-25.666c-0.64,8.338-7.181,61-7.181,61s12.537-16.087,16.848-15.5
		c6.811,15.48-1.856,61.112-0.461,56.604C45.578,445.875,67,441.5,74.25,449.35c-1.149,13.157-1.525,26.502,2.06,39.37
		c21.074-14.241,25.832-20.169,18.34,7.7c-1.203,4.474,33.4-19.789,35.21-22.37c0.762,2.735-0.707,26.451,0.06,26.811
		c11.203,5.254,34.097-13.554,40.31-20.721c-0.078,2.295-3.419,25.243-4.85,25.5c15.153-2.648,26.45-13.798,36.1-24.88
		c0.657,2.173,3.057,25.234,4.029,25.571c11.615,4.026,19.883-20.68,25.181-25.821c3.609,3.578,4.267,31.45,5.198,31.353
		c4.428-0.465,30.826-21.503,30.982-21.063c2.441,6.856,1.976,17.067-2.16,23.25c13.268-2.027,22.812-21.155,33.028-22.153
		c4.011-0.393,5.435,17.922,3.262,20.144c10.792-2.634,15.347-6.587,22.59-15.89c6.802,22.457,8.154,17.619,26.43-1.83
		c2.482,5.486,3.426,11.226,2.83,17.22c15.123-7.715,19.469-19.507,30.79-29.23c1.35-1.17,5.385,28.646,4.931,28.4
		c6.352,3.418,21.025-31.253,24.83-34.49c1.773,6.693-0.467,33.785,10.825,21.509c12.425-13.507,17.849-28.418,23.965-45.408
		c3.475,7.386,5.895,15.102,7.26,23.149c10.93-17.907,14.491-38.946,16.5-59.489c3.49,6.354,5.724,13.125,6.7,20.31
		c15.918-18.422,22.838-42.45,24.6-66.33c3.611,7.015,6.201,14.388,7.77,22.12c6.117-24.872,3.983-44.309,0.9-69.09
		c0.339,2.652,14.185,22.496,16.86,25.24c-1.182-6.229-18.539-66.938-15.874-69.108c1.253-1.021,17.891,9.198,17.384,7.147
		c-2.84-11.377-10.463-46.537-21.56-52.54c2.542-2.814,11.97,7.636,15.359,7.11c-9.271-17.557-19.772-32.153-31.649-47.99
		c1.843,1.21,13.431,5.815,15.753,5.827c5.094,0.027-12.205-28.746-12.543-29.257c-1.055,0.123,27.926-3.085,22.069-7.906
		c-5.342-4.397-13.803-5.064-15.72-13.444c0.042,0.185,26.723-8.034,28.31-8.77c-2.761-1.209-37.646-20.64-33.945-21.842
		c0.144-0.047,31.018-6.307,25.775-11.317c-9.718-9.273-26.922-12.702-37.85-21.9c-13.907-11.732,14.919-10.028,20.6-12.16
		c-4.069-2.534-46.472-23.626-48.578-18.757c0.754-1.744-7.296-3.968,9.208-17.613c12.147-10.043-33.53,8.702-49.729,1.94
		c4.735-3.438,9.469-6.877,14.2-10.32c-18.376-1.382-36.972,1.795-53.82,9.27c2.729-7.991,3.7-16.191,2.91-24.6
		c-9.397,2.803-19.417,21.15-28.91,26.79c-0.854,0.502-3.324-20.268-3.83-21.95c-11.405,21.947-33.576,49.27-61.455,36.69"/>
</g>
<g id="detail">
	<g>
		<g>
			<g>
				<path fill="#FDB1CB" d="M469.721,126.399c0.672,2.786,0.796,6.194,2.294,8.702c1.998,3.346,4.684,6.059,7.258,8.959
					c0.354-0.854,0.707-1.707,1.061-2.561c-4.884,0.49-8.724-3.698-13.268-4.946c-0.587-0.162-1.433,0.082-1.693,0.689
					c-1.855,4.31-1.214,9.203-0.151,13.656c0.734-0.565,1.469-1.129,2.203-1.694c-7.094-3.512-15.519-9.107-20.53-15.265
					c-0.666-0.818-2.36-0.421-2.507,0.662c-0.937,6.915,3.529,13.249,7,18.848c0.564-0.734,1.129-1.469,1.693-2.203
					c-9.971-3.23-17.605-10.296-22.951-19.17c-0.553-0.918-2.065-1.03-2.59,0c-2.779,5.455-3.515,11.012-2.152,16.989
					c0.734-0.565,1.469-1.129,2.203-1.694c-5.931-3.588-10.805-8.093-14.962-13.628c-0.706-0.94-1.89-0.974-2.59,0
					c-4.55,6.322-9.902,13.593-16.189,18.295c0.752,0.432,1.505,0.864,2.257,1.295c0.35-3.354,0.608-6.681-0.428-9.935
					c-0.789-2.479-2.431-4.714-3.554-7.046c-0.396-0.821-1.768-1.021-2.355-0.303c-4.08,4.984-6.327,10.56-8.651,16.495
					c0.964,0,1.929,0,2.893,0c-1.631-8.65-1.735-17.947-1.343-26.711c0.08-1.793-2.39-1.902-2.946-0.399
					c-2.239,6.051-4.545,12.197-8.541,17.341c-4.232,5.45-10.465,8.572-16.85,10.778c0.615,0.615,1.229,1.23,1.845,1.845
					c2.539-8.487,4.961-15.887,1.336-24.406c-0.528-1.242-2.439-0.792-2.741,0.358c-1.286,4.894-3.014,9.587-7.309,12.585
					c-4.345,3.033-10.182,4.099-15.192,5.506c0.564,0.734,1.129,1.469,1.693,2.204c2.804-4.954,5.233-10.352,7.636-15.524
					c1.815-3.909,3.317-8.126,3.547-12.456c0.103-1.934-2.898-1.924-3,0c-0.247,4.657-2.232,9.199-4.277,13.318
					c-2.161,4.353-4.104,8.922-6.495,13.147c-0.644,1.136,0.409,2.564,1.693,2.204c5.642-1.584,11.733-2.893,16.615-6.301
					c4.614-3.221,6.609-8.666,7.981-13.886c-0.914,0.119-1.828,0.239-2.741,0.358c3.235,7.605,0.589,14.649-1.639,22.094
					c-0.314,1.05,0.76,2.22,1.845,1.845c7.001-2.418,13.37-5.793,18.175-11.549c4.476-5.362,6.92-12.202,9.312-18.665
					c-0.982-0.133-1.964-0.266-2.946-0.399c-0.405,9.047-0.233,18.58,1.45,27.509c0.304,1.612,2.409,1.235,2.893,0
					c2.13-5.438,4.144-10.607,7.88-15.172c-0.785-0.101-1.57-0.202-2.355-0.303c1.025,2.129,2.371,4.134,3.251,6.329
					c1.135,2.828,0.626,6.206,0.32,9.138c-0.112,1.076,1.383,1.949,2.257,1.295c6.751-5.049,12.373-12.573,17.266-19.372
					c-0.863,0-1.727,0-2.59,0c4.472,5.956,9.659,10.846,16.038,14.705c1.173,0.709,2.487-0.449,2.203-1.694
					c-1.18-5.18-0.559-9.949,1.85-14.677c-0.863,0-1.727,0-2.59,0c5.754,9.551,14.033,17.079,24.744,20.548
					c1.253,0.406,2.373-1.108,1.693-2.203c-2.917-4.708-7.487-10.702-6.697-16.537c-0.836,0.22-1.671,0.441-2.507,0.662
					c5.182,6.368,13.854,12.128,21.138,15.735c1.178,0.583,2.521-0.363,2.203-1.694c-0.84-3.521-1.638-7.89-0.151-11.344
					c-0.564,0.23-1.129,0.46-1.693,0.689c4.934,1.355,8.648,5.598,14.064,5.054c1.309-0.131,1.977-1.529,1.061-2.561
					c-2.097-2.362-4.3-4.586-6.099-7.196c-1.809-2.625-1.955-6.129-2.682-9.142C472.16,123.721,469.268,124.519,469.721,126.399
					L469.721,126.399z"/>
			</g>
		</g>
		<g>
			<g>
				<path fill="#FDB1CB" d="M353.304,253.649c2.284,11.56,9.864,22.62,19.319,29.536c1.166,0.854,2.427-0.546,2.203-1.693
					c-0.825-4.238-1.047-8.198,0.25-12.342c0.722-2.305,1.895-4.441,2.62-6.75c-0.964,0-1.929,0-2.893,0
					c0.91,4.811,4.636,9.071,7.624,12.762c4.351,5.376,9.389,10.412,15.065,14.384c1.191,0.834,2.406-0.533,2.203-1.693
					c-1.175-6.712-0.966-13.571-0.696-20.352c-0.932,0.252-1.863,0.505-2.795,0.757c6.251,9.636,12.871,23.718,24.962,26.939
					c1.216,0.324,1.992-0.751,1.845-1.845c-0.965-7.155,0.781-21.754,8.792-24.655c-0.614-0.349-1.229-0.698-1.845-1.047
					c1.191,5.476,5.716,9.471,9.968,12.743c2.384,1.834,8.801,7.015,12.29,5.856c0.963-0.319,1.711-1.17,1.426-2.254
					c-0.814-3.09-1.173-5.324-0.342-8.492c1.945-7.411,3.967-13.818,3.706-21.641c-0.752,0.432-1.505,0.863-2.257,1.295
					c3.68,1.87,8.984,4.272,9.804,8.743c0.257,1.402,2.068,1.306,2.741,0.358c8.828-12.426,12.831-26.071,12.955-41.257
					c-0.932,0.252-1.863,0.505-2.795,0.757c1.354,2.374,4.734,3.871,6.795,5.515c3.752,2.994,5.024,6.453,6.98,10.586
					c0.505,1.067,2.354,1.266,2.862,0.08c0.64-1.491,0.499-3.302,0.499-4.889c0-7.734-0.731-15.508-1.582-23.188
					c-0.779-7.03-1.472-14.579-4.063-21.218c-0.695-1.781-3.598-1.007-2.893,0.798c4.578,11.726,4.813,25.99,5.396,38.421
					c0.106,2.287,0.173,4.578,0.126,6.867c-0.012,0.578-0.018,1.177-0.121,1.747c1.859,0.657,2.643,0.595,2.348-0.186
					c-0.226-0.614-0.39-1.331-0.571-1.936c-1.009-3.354-3.483-6.162-6.005-8.477c-1.979-1.816-5.865-3.329-7.181-5.635
					c-0.747-1.311-2.783-0.721-2.795,0.757c-0.12,14.7-4.009,27.726-12.545,39.743c0.914,0.119,1.827,0.239,2.741,0.358
					c-0.979-5.342-6.784-8.301-11.183-10.536c-0.969-0.492-2.297,0.098-2.257,1.295c0.213,6.407-0.842,12.267-2.821,18.324
					c-1.154,3.536-1.91,6.871-1.1,10.565c0.592,2.694,0.261,0.607,1.43,0.563c-0.761,0.028-1.885-0.604-2.523-0.891
					c-2.029-0.91-3.929-2.118-5.774-3.35c-4.28-2.854-9.222-6.96-10.366-12.222c-0.164-0.753-1.105-1.315-1.845-1.047
					c-9.925,3.594-12.102,19.348-10.888,28.345c0.615-0.615,1.23-1.229,1.845-1.845c-11.173-2.978-17.374-16.63-23.169-25.561
					c-0.817-1.261-2.734-0.757-2.795,0.757c-0.281,7.066-0.42,14.158,0.804,21.148c0.734-0.564,1.469-1.129,2.203-1.693
					c-4.765-3.335-8.878-7.525-12.722-11.866c-3.253-3.675-7.639-8.471-8.589-13.488c-0.292-1.541-2.478-1.321-2.893,0
					c-0.929,2.957-2.395,5.684-3.175,8.695c-1.02,3.936-0.459,8.073,0.305,11.992c0.734-0.564,1.469-1.129,2.203-1.693
					c-8.835-6.464-15.814-16.983-17.94-27.744C355.821,250.954,352.931,251.759,353.304,253.649L353.304,253.649z"/>
			</g>
		</g>
		<g>
			<g>
				<path fill="#FEB2CC" d="M458.038,304.09c6.519,13.465,9.016,29.154,10.295,43.91c0.752-0.432,1.505-0.863,2.257-1.295
					c-5.864-4.396-9.939-11.132-13.962-17.129c-0.971-1.447-3.055-0.52-2.741,1.155c3.012,16.119,2.008,32.985-1,49.037
					c0.964,0,1.929,0,2.893,0c-1.883-5.335-6.352-9.287-9.045-14.192c-0.818-1.491-3.239-0.475-2.741,1.155
					c3.969,13.005-5.566,26.251-14.338,34.875c0.836,0.486,1.671,0.973,2.507,1.459c1.604-9.001-0.229-21.418-5.263-29.155
					c-0.739-1.137-2.294-0.867-2.741,0.358c-1.717,4.698-5.675,8.964-9.779,11.728c-2.483,1.672-1.579-0.545-1.37-2.277
					c0.267-2.217,0.368-4.456,0.476-6.684c0.549-11.395,0.496-23.021-0.749-34.368c-0.154-1.409-1.978-2.141-2.795-0.757
					c-4.296,7.267-8.487,14.698-14.358,20.835c0.854,0.354,1.707,0.707,2.561,1.061c-0.869-10.056,3.276-19.584,4.637-29.407
					c1.258-9.076-4.379-17.024-9.151-24.155c-1.069-1.599-3.67-0.099-2.59,1.514c2.369,3.54,4.723,7.056,6.625,10.875
					c2.676,5.374,2.463,10.686,1.247,16.39c-1.741,8.17-4.499,16.325-3.768,24.784c0.106,1.233,1.589,2.076,2.561,1.061
					c6.052-6.324,10.399-13.951,14.827-21.442c-0.932-0.252-1.863-0.505-2.795-0.757c1.545,14.079,1.749,28.933,0,43
					c-0.556,4.47,2.999,4.782,6.157,2.92c4.837-2.853,9.243-8.279,11.158-13.521c-0.914,0.12-1.828,0.239-2.741,0.358
					c4.588,7.055,6.427,18.607,4.96,26.845c-0.253,1.421,1.368,2.579,2.507,1.459c9.559-9.397,19.406-23.713,15.109-37.793
					c-0.914,0.385-1.827,0.771-2.741,1.155c2.545,4.637,6.967,8.448,8.742,13.476c0.451,1.277,2.598,1.577,2.893,0
					c3.114-16.618,4.118-33.945,1-50.631c-0.914,0.385-1.828,0.771-2.741,1.155c4.323,6.446,8.744,13.488,15.038,18.205
					c0.886,0.664,2.35-0.225,2.257-1.295c-1.331-15.351-3.932-31.435-10.705-45.424C459.785,300.835,457.198,302.357,458.038,304.09
					L458.038,304.09z"/>
			</g>
		</g>
	</g>
	<g>
		<g>
			<path fill="none" stroke="#FDB1CB" d="M471.167,126c0.833,3,1,7,2.833,9.5c1.667,2.667,4.333,5.167,6.333,7.5
				c-4.666,1-9.333-4.167-13.666-5c-1.667,3-0.834,9.333,0,12.5c-4-1.833-7.167-4.5-10.834-7c-3.166-2.333-7.666-5.333-10-8.5
				c-1.166,5.333,4.182,13.359,6.849,17.692c-10-3-18.432-10.546-23.848-19.859c-2.5,4.5-3.544,10.178-2.001,15.833
				c-6.152-3.594-11.082-8.113-15.5-14.167c-3.325,4.707-12.999,16.236-16.728,18.833c1.181-9.989-0.919-10.033-3.776-16.224
				c-4.433,5.167-5.828,9.675-8.266,15.833c-0.834-4.021-1.896-17.776-1.396-27.11c-5.417,14.72-9.573,23.565-26.438,29.167
				c2.602-8.86,5.333-15.098,1.487-23.25c-3.466,13.862-9.06,15.063-23.549,19.139c2.167-3.5,3.244-7.617,5.43-11.223
				c2.155-3.557,5.548-11.5,5.548-16"/>
			<g>
				<path fill="none" stroke="#FDB1CB" d="M469.721,126.399c0.672,2.786,0.796,6.194,2.294,8.702
					c1.998,3.346,4.684,6.059,7.258,8.959c0.354-0.854,0.707-1.707,1.061-2.561c-4.884,0.49-8.724-3.698-13.268-4.946
					c-0.587-0.162-1.433,0.082-1.693,0.689c-1.855,4.31-1.214,9.203-0.151,13.656c0.734-0.565,1.469-1.129,2.203-1.694
					c-7.094-3.512-15.519-9.107-20.53-15.265c-0.666-0.818-2.36-0.421-2.507,0.662c-0.937,6.915,3.529,13.249,7,18.848
					c0.564-0.734,1.129-1.469,1.693-2.203c-9.971-3.23-17.605-10.296-22.951-19.17c-0.553-0.918-2.065-1.03-2.59,0
					c-2.779,5.455-3.515,11.012-2.152,16.989c0.734-0.565,1.469-1.129,2.203-1.694c-5.931-3.588-10.805-8.093-14.962-13.628
					c-0.706-0.94-1.89-0.974-2.59,0c-4.55,6.322-9.902,13.593-16.189,18.295c0.752,0.432,1.505,0.864,2.257,1.295
					c0.35-3.354,0.608-6.681-0.428-9.935c-0.789-2.479-2.431-4.714-3.554-7.046c-0.396-0.821-1.768-1.021-2.355-0.303
					c-4.08,4.984-6.327,10.56-8.651,16.495c0.964,0,1.929,0,2.893,0c-1.631-8.65-1.735-17.947-1.343-26.711
					c0.08-1.793-2.39-1.902-2.946-0.399c-2.239,6.051-4.545,12.197-8.541,17.341c-4.232,5.45-10.465,8.572-16.85,10.778
					c0.615,0.615,1.229,1.23,1.845,1.845c2.539-8.487,4.961-15.887,1.336-24.406c-0.528-1.242-2.439-0.792-2.741,0.358
					c-1.286,4.894-3.014,9.587-7.309,12.585c-4.345,3.033-10.182,4.099-15.192,5.506c0.564,0.734,1.129,1.469,1.693,2.204
					c2.804-4.954,5.233-10.352,7.636-15.524c1.815-3.909,3.317-8.126,3.547-12.456c0.103-1.934-2.898-1.924-3,0
					c-0.247,4.657-2.232,9.199-4.277,13.318c-2.161,4.353-4.104,8.922-6.495,13.147c-0.644,1.136,0.409,2.564,1.693,2.204
					c5.642-1.584,11.733-2.893,16.615-6.301c4.614-3.221,6.609-8.666,7.981-13.886c-0.914,0.119-1.828,0.239-2.741,0.358
					c3.235,7.605,0.589,14.649-1.639,22.094c-0.314,1.05,0.76,2.22,1.845,1.845c7.001-2.418,13.37-5.793,18.175-11.549
					c4.476-5.362,6.92-12.202,9.312-18.665c-0.982-0.133-1.964-0.266-2.946-0.399c-0.405,9.047-0.233,18.58,1.45,27.509
					c0.304,1.612,2.409,1.235,2.893,0c2.13-5.438,4.144-10.607,7.88-15.172c-0.785-0.101-1.57-0.202-2.355-0.303
					c1.025,2.129,2.371,4.134,3.251,6.329c1.135,2.828,0.626,6.206,0.32,9.138c-0.112,1.076,1.383,1.949,2.257,1.295
					c6.751-5.049,12.373-12.573,17.266-19.372c-0.863,0-1.727,0-2.59,0c4.472,5.956,9.659,10.846,16.038,14.705
					c1.173,0.709,2.487-0.449,2.203-1.694c-1.18-5.18-0.559-9.949,1.85-14.677c-0.863,0-1.727,0-2.59,0
					c5.754,9.551,14.033,17.079,24.744,20.548c1.253,0.406,2.373-1.108,1.693-2.203c-2.917-4.708-7.487-10.702-6.697-16.537
					c-0.836,0.22-1.671,0.441-2.507,0.662c5.182,6.368,13.854,12.128,21.138,15.735c1.178,0.583,2.521-0.363,2.203-1.694
					c-0.84-3.521-1.638-7.89-0.151-11.344c-0.564,0.23-1.129,0.46-1.693,0.689c4.934,1.355,8.648,5.598,14.064,5.054
					c1.309-0.131,1.977-1.529,1.061-2.561c-2.097-2.362-4.3-4.586-6.099-7.196c-1.809-2.625-1.955-6.129-2.682-9.142
					C472.16,123.721,469.268,124.519,469.721,126.399L469.721,126.399z"/>
			</g>
		</g>
		<g>
			<path fill="none" stroke="#FDB1CB" d="M354.75,253.25c1.75,10.25,10.38,22.89,18.63,28.64c-2.447-11.25,1.37-14.64,2.87-19.89
				c0.75,5.75,13.5,20.5,22,26.25c-1.232-6.25-1-14.75-0.75-20.75c5.25,8,13.815,24,24.065,26.25c-1.25-7.75,2.09-24.25,9.84-26.5
				c1.595,9.75,22.162,20.405,20.72,16.875c-3.625-8.875,4.234-12.989,3.382-30.264c3.5,1.75,10.243,5.389,10.493,9.639
				c9.25-12.75,12.75-25,12.75-40.5c0.75,2,11.139,5.974,13.412,15.01c2.327,9.249,0.107-35.327-4.662-46.968"/>
			<g>
				<path fill="none" stroke="#FDB1CB" d="M353.304,253.649c2.284,11.56,9.864,22.62,19.319,29.536
					c1.166,0.854,2.427-0.546,2.203-1.693c-0.825-4.238-1.047-8.198,0.25-12.342c0.722-2.305,1.895-4.441,2.62-6.75
					c-0.964,0-1.929,0-2.893,0c0.91,4.811,4.636,9.071,7.624,12.762c4.351,5.376,9.389,10.412,15.065,14.384
					c1.191,0.834,2.406-0.533,2.203-1.693c-1.175-6.712-0.966-13.571-0.696-20.352c-0.932,0.252-1.863,0.505-2.795,0.757
					c6.251,9.636,12.871,23.718,24.962,26.939c1.216,0.324,1.992-0.751,1.845-1.845c-0.965-7.155,0.781-21.754,8.792-24.655
					c-0.614-0.349-1.229-0.698-1.845-1.047c1.191,5.476,5.716,9.471,9.968,12.743c2.384,1.834,8.801,7.015,12.29,5.856
					c0.963-0.319,1.711-1.17,1.426-2.254c-0.814-3.09-1.173-5.324-0.342-8.492c1.945-7.411,3.967-13.818,3.706-21.641
					c-0.752,0.432-1.505,0.863-2.257,1.295c3.68,1.87,8.984,4.272,9.804,8.743c0.257,1.402,2.068,1.306,2.741,0.358
					c8.828-12.426,12.831-26.071,12.955-41.257c-0.932,0.252-1.863,0.505-2.795,0.757c1.354,2.374,4.734,3.871,6.795,5.515
					c3.752,2.994,5.024,6.453,6.98,10.586c0.505,1.067,2.354,1.266,2.862,0.08c0.64-1.491,0.499-3.302,0.499-4.889
					c0-7.734-0.731-15.508-1.582-23.188c-0.779-7.03-1.472-14.579-4.063-21.218c-0.695-1.781-3.598-1.007-2.893,0.798
					c4.578,11.726,4.813,25.99,5.396,38.421c0.106,2.287,0.173,4.578,0.126,6.867c-0.012,0.578-0.018,1.177-0.121,1.747
					c1.859,0.657,2.643,0.595,2.348-0.186c-0.226-0.614-0.39-1.331-0.571-1.936c-1.009-3.354-3.483-6.162-6.005-8.477
					c-1.979-1.816-5.865-3.329-7.181-5.635c-0.747-1.311-2.783-0.721-2.795,0.757c-0.12,14.7-4.009,27.726-12.545,39.743
					c0.914,0.119,1.827,0.239,2.741,0.358c-0.979-5.342-6.784-8.301-11.183-10.536c-0.969-0.492-2.297,0.098-2.257,1.295
					c0.213,6.407-0.842,12.267-2.821,18.324c-1.154,3.536-1.91,6.871-1.1,10.565c0.592,2.694,0.261,0.607,1.43,0.563
					c-0.761,0.028-1.885-0.604-2.523-0.891c-2.029-0.91-3.929-2.118-5.774-3.35c-4.28-2.854-9.222-6.96-10.366-12.222
					c-0.164-0.753-1.105-1.315-1.845-1.047c-9.925,3.594-12.102,19.348-10.888,28.345c0.615-0.615,1.23-1.229,1.845-1.845
					c-11.173-2.978-17.374-16.63-23.169-25.561c-0.817-1.261-2.734-0.757-2.795,0.757c-0.281,7.066-0.42,14.158,0.804,21.148
					c0.734-0.564,1.469-1.129,2.203-1.693c-4.765-3.335-8.878-7.525-12.722-11.866c-3.253-3.675-7.639-8.471-8.589-13.488
					c-0.292-1.541-2.478-1.321-2.893,0c-0.929,2.957-2.395,5.684-3.175,8.695c-1.02,3.936-0.459,8.073,0.305,11.992
					c0.734-0.564,1.469-1.129,2.203-1.693c-8.835-6.464-15.814-16.983-17.94-27.744
					C355.821,250.954,352.931,251.759,353.304,253.649L353.304,253.649z"/>
			</g>
		</g>
		<g>
			<path fill="none" stroke="#FDB1CB" d="M459.333,303.333c4.588,9.195,9,26.167,10.5,44.667c-4.333-3-9.5-10.167-14.5-17.667
				c3.667,18.5,0.979,39.498-1,49.834c-1-3.667-6.894-9.834-8.894-13.834c3.667,10.667-3.103,25.2-14.724,36.334
				c1.405-6.667-1.111-22.333-5.111-28c-2.333,7.334-15.82,19.038-14.369,11c1.204-6.669,1.432-30.667,0-43
				c-6.127,10.378-9.568,16-14.593,21.139c-1.091-9.162,3.69-21.473,4.69-29.806c1-8.667-4.333-16-9-23"/>
			<g>
				<path fill="none" stroke="#FDB1CB" d="M458.038,304.09c6.519,13.465,9.016,29.154,10.295,43.91
					c0.752-0.432,1.505-0.863,2.257-1.295c-5.864-4.396-9.939-11.132-13.962-17.129c-0.971-1.447-3.055-0.52-2.741,1.155
					c3.012,16.119,2.008,32.985-1,49.037c0.964,0,1.929,0,2.893,0c-1.883-5.335-6.352-9.287-9.045-14.192
					c-0.818-1.491-3.239-0.475-2.741,1.155c3.969,13.005-5.566,26.251-14.338,34.875c0.836,0.486,1.671,0.973,2.507,1.459
					c1.604-9.001-0.229-21.418-5.263-29.155c-0.739-1.137-2.294-0.867-2.741,0.358c-1.717,4.698-5.675,8.964-9.779,11.728
					c-2.483,1.672-1.579-0.545-1.37-2.277c0.267-2.217,0.368-4.456,0.476-6.684c0.549-11.395,0.496-23.021-0.749-34.368
					c-0.154-1.409-1.978-2.141-2.795-0.757c-4.296,7.267-8.487,14.698-14.358,20.835c0.854,0.354,1.707,0.707,2.561,1.061
					c-0.869-10.056,3.276-19.584,4.637-29.407c1.258-9.076-4.379-17.024-9.151-24.155c-1.069-1.599-3.67-0.099-2.59,1.514
					c2.369,3.54,4.723,7.056,6.625,10.875c2.676,5.374,2.463,10.686,1.247,16.39c-1.741,8.17-4.499,16.325-3.768,24.784
					c0.106,1.233,1.589,2.076,2.561,1.061c6.052-6.324,10.399-13.951,14.827-21.442c-0.932-0.252-1.863-0.505-2.795-0.757
					c1.545,14.079,1.749,28.933,0,43c-0.556,4.47,2.999,4.782,6.157,2.92c4.837-2.853,9.243-8.279,11.158-13.521
					c-0.914,0.12-1.828,0.239-2.741,0.358c4.588,7.055,6.427,18.607,4.96,26.845c-0.253,1.421,1.368,2.579,2.507,1.459
					c9.559-9.397,19.406-23.713,15.109-37.793c-0.914,0.385-1.827,0.771-2.741,1.155c2.545,4.637,6.967,8.448,8.742,13.476
					c0.451,1.277,2.598,1.577,2.893,0c3.114-16.618,4.118-33.945,1-50.631c-0.914,0.385-1.828,0.771-2.741,1.155
					c4.323,6.446,8.744,13.488,15.038,18.205c0.886,0.664,2.35-0.225,2.257-1.295c-1.331-15.351-3.932-31.435-10.705-45.424
					C459.785,300.835,457.198,302.357,458.038,304.09L458.038,304.09z"/>
			</g>
		</g>
	</g>
</g>
<g id="ear">
	<path fill="#FEE4EC" stroke="#FDB1CB" stroke-width="5" stroke-miterlimit="10" d="M316.19,159.38
		c-0.311-2.77-6.25-6.26-8.171-8.09c-2.789-2.67-5.47-5.44-8.039-8.33c-4.391-4.93-9.397-12.763-11.261-15.62
		c2.563,0.456,6.61,3.6,8.67,3.88c-0.569-5.22-5.479-10.65-7.37-15.64c-2.449-6.45-3.85-13.26-4.43-20.13
		c1.65,1.28,8.44,7.9,10.17,7.02c-6.33-17.08-5.63-35.41-2.2-53.04c2.28,3.51,4.551,7.01,6.82,10.52
		c0.76-9.75,2.601-19.39,6.98-28.2c1.72,6.5,5.819,11.69,10.51,16.35c0.26,0.26,4.61,5.3,4.82,2.67c0.229-2.96-0.69-6.25-0.511-9.34
		C331.2,53.99,336.53,68.55,337.56,84c1.851-1.75,3.69-3.51,5.54-5.26c2.051,11.72-2.08,22.78-5.92,33.65"/>
	<g>
		<g>
			<path fill="#FEB2CC" d="M313.171,57.976c-3.712,13.431,0.616,24.95,5.383,37.548c0.836-0.487,1.671-0.973,2.507-1.459
				c-6.331-6.756-13.036-13.026-17.766-21.071c-0.909-1.548-3.019-0.457-2.741,1.156c2.823,16.398,12.187,33.555,22.636,46.349
				c0.486-0.835,0.973-1.671,1.459-2.507c-6.474-1.761-12.753-7.774-16.729-12.998c-0.822-1.082-2.862-0.888-2.795,0.757
				c0.468,11.474,9.188,22.275,19.118,27.42c1.715,0.888,3.232-1.7,1.514-2.591c-8.959-4.642-17.207-14.411-17.632-24.83
				c-0.932,0.252-1.863,0.505-2.795,0.757c4.429,5.821,11.271,12.405,18.521,14.377c1.553,0.422,2.364-1.399,1.459-2.507
				c-10.14-12.417-19.132-29.156-21.864-45.026c-0.914,0.385-1.827,0.771-2.741,1.156c4.861,8.271,11.723,14.731,18.234,21.679
				c0.986,1.052,3.048-0.03,2.507-1.459c-4.543-12.006-8.937-23.096-5.383-35.952C316.58,56.906,313.686,56.114,313.171,57.976
				L313.171,57.976z"/>
		</g>
	</g>
</g>
<g id="left_eye">
	<path fill-rule="evenodd" clip-rule="evenodd" fill="#1F1C1D" d="M441.544,156.8c1.584-1.589,2.171-5.185,2.656-7.311
		C441.943,147.141,441.552,155.763,441.544,156.8C443.319,155.02,441.563,154.223,441.544,156.8z"/>
	<path fill-rule="evenodd" clip-rule="evenodd" fill="#1F1C1D" d="M456.247,188.766c-0.639,0.89-0.864,1.875-0.677,2.956
		c1.439-0.814,2.191,0.314,2.862,1.4C457.97,191.465,458.313,189.411,456.247,188.766
		C455.408,189.61,458.409,189.441,456.247,188.766z"/>
	<path fill-rule="evenodd" clip-rule="evenodd" fill="#1F1C1D" d="M455.528,197.174c-3.083,1.501,1.191,2.977,1.854,3.18
		C457.35,198.99,456.825,197.779,455.528,197.174C454.41,197.718,456.881,197.805,455.528,197.174z"/>
	<path fill-rule="evenodd" clip-rule="evenodd" fill="#3FBEBA" d="M453.037,199.684c0.28-2.194,0.724-4.394,0.506-6.618
		c-2.31,0.082-2.798-0.678-3.072,1.947C450.17,197.862,449.508,199.458,453.037,199.684
		C453.318,197.486,451.967,199.616,453.037,199.684z"/>
	<path fill-rule="evenodd" clip-rule="evenodd" fill="#058E8A" d="M450.664,193.167c3.736-0.132,2.953-1.078,3.054-4.721
		c0.086-3.081,0.074-6.168-0.203-9.239c-3.903,0.145-3.04,0.941-2.985,4.729C450.573,187.014,450.619,190.09,450.664,193.167
		C451.623,193.133,450.597,188.553,450.664,193.167z"/>
	<path fill-rule="evenodd" clip-rule="evenodd" fill="#020404" d="M439.739,189.874c-0.37-4.032-0.147-8.083,0.032-12.118
		c6.737,4.457,7.323-15.378,7.44-18.577c3.748,5.112,3.113,14.507,3.735,20.516c0.095,6.507,0.3,12.907-0.38,19.382
		C445.358,198.232,442.128,194.257,439.739,189.874C439.367,185.833,442.168,194.331,439.739,189.874z M445.58,180.889
		c-1.935,2.555-1.943,5.264-0.805,8.063C446.76,186.401,446.663,183.684,445.58,180.889z"/>
	<path fill-rule="evenodd" clip-rule="evenodd" fill="#FBFBFB" d="M453.522,200.057c0.602-0.037,1.202-0.074,1.803-0.111
		c-0.2-2.491,0.41-6.61,0.759-9.401c0.599-4.79,0.597-9.743,0.566-14.731c-0.036-5.546,2.894-23.106-5.326-23.122
		C454.327,167.9,455.498,184.647,453.522,200.057C454.124,200.021,453.804,197.859,453.522,200.057z"/>
	<path fill-rule="evenodd" clip-rule="evenodd" fill="#FBFBFB" d="M440.76,178.41c6.648,1.241,9.584-24.744,3.728-27.674
		C439.427,159.238,441.272,168.865,440.76,178.41C443.495,178.92,440.913,175.551,440.76,178.41z"/>
	<path fill-rule="evenodd" clip-rule="evenodd" fill="#085856" d="M440.76,178.41c0.104-1.939-0.672-12.713,0.581-13.689
		C440.113,164.647,438.835,177.135,440.76,178.41C440.913,175.551,440.432,178.192,440.76,178.41z"/>
	<path fill-rule="evenodd" clip-rule="evenodd" fill="#085856" d="M444.686,149.863c-0.316,1.388,1.806,2.771,2.073,4.626
		c0.351,2.437,0.405,4.134,1.429,6.352c2.17,4.703,2.076,11.339,2.527,16.41c0.318,3.552,3.328,3.51,3.274-0.138
		c-0.047-3.279-0.229-6.556-0.53-9.821c-0.303-3.263-0.727-6.515-1.257-9.749C451.291,152.002,449.669,151.987,444.686,149.863
		C444.619,150.154,446.898,150.807,444.686,149.863z"/>
	<path fill-rule="evenodd" clip-rule="evenodd" fill="#1F1C1D" d="M454.882,153.439c0.108-2.135-1.235-4.419-0.591-6.615
		c2.859-0.292,1.385,5.167,1.546,7.267c0.232,3.027,2.922-0.547,3.837-0.356c-1.03,2.176-0.727,4.98-3.609,5.717
		C454.599,157.654,456.424,155.213,454.882,153.439C454.92,152.711,456.426,155.217,454.882,153.439z M456.106,155.538
		C456.959,155.951,456.553,155.144,456.106,155.538C456.25,155.607,456.181,155.472,456.106,155.538z"/>
</g>
<g id="right_eye">
	<path fill-rule="evenodd" clip-rule="evenodd" fill="#1F1C1D" d="M388.715,144.426c1.401,0.988,2.804,1.977,4.204,2.964
		C393.203,143.804,390.985,139.365,388.715,144.426C390.116,145.415,389.214,143.315,388.715,144.426z"/>
	<path fill-rule="evenodd" clip-rule="evenodd" fill="#06ABA6" d="M403.766,212.373c0.502,0.088,0.677-0.155,0.629-0.623
		C403.926,211.696,403.66,211.848,403.766,212.373z"/>
	<path fill-rule="evenodd" clip-rule="evenodd" fill="#06ABA6" d="M403.153,212.954c0.514,0.115,0.71-0.103,0.637-0.604
		C403.286,212.245,402.971,212.337,403.153,212.954z"/>
	<path fill-rule="evenodd" clip-rule="evenodd" fill="#06ABA6" d="M404.368,211.777c0.559-0.011,0.771-0.321,0.736-0.849
		C404.657,211.035,404.323,211.242,404.368,211.777z"/>
	<path fill-rule="evenodd" clip-rule="evenodd" fill="#FBFBFB" d="M391.024,188.822c4.904-0.112,9.264-8.58,2.572-8.468
		C388.796,180.433,384.605,188.966,391.024,188.822C394.02,188.753,388.979,188.868,391.024,188.822z"/>
	<path fill-rule="evenodd" clip-rule="evenodd" fill="#3FBEBA" d="M373.275,193.053c-3.921,0.259-7.842,0.519-11.764,0.777
		c0.476,2.335,1.325,4.568,2.227,6.767c1.31,3.191,2.166,2.024,5.096,1.036c2.063-0.695,4.046-1.636,5.761-2.991
		C374.155,196.779,373.716,194.917,373.275,193.053C369.354,193.313,373.716,194.917,373.275,193.053z"/>
	<path fill-rule="evenodd" clip-rule="evenodd" fill="#058E8A" d="M369.622,172.665c-2.803-0.401-5.604-0.802-8.406-1.203
		c-0.844,4.088-1.267,8.269-1.128,12.444c0.11,3.348,0.583,6.682,1.424,9.924c3.922-0.259,7.843-0.518,11.764-0.777
		c-0.548-3.306-0.843-6.662-0.695-10.014c0.071-1.685,0.261-3.356,0.568-5.015C371.472,176.606,370.471,174.643,369.622,172.665
		C366.819,172.264,370.479,174.661,369.622,172.665z"/>
	<path fill-rule="evenodd" clip-rule="evenodd" fill="#085856" d="M385.725,149.398c2.312,0.034,4.699,0.167,6.699,1.491
		c1.533-2.477,0.369-3.588-1.606-4.98C387.651,143.677,386.98,146.281,385.725,149.398
		C388.061,149.433,386.457,147.582,385.725,149.398z"/>
	<path fill-rule="evenodd" clip-rule="evenodd" fill="#085856" d="M369.622,172.665c-1.604-14.106,14.3-16.893,9.536-28.393
		c-10.186,6.285-16.166,15.348-17.942,27.189C380.717,174.255,361.743,171.538,369.622,172.665
		C369.08,167.899,366.819,172.264,369.622,172.665z"/>
	<path fill-rule="evenodd" clip-rule="evenodd" fill="#88D0D2" d="M370.494,211.898c1.367-2.358,3.352-4.246,5.327-6.085
		c2.396-2.232,0.031-4.483-1.227-7.171c-2.881,2.275-6.437,3.313-9.947,4.152C365.111,204.543,368.42,211.787,370.494,211.898
		C372.223,208.917,370.312,211.889,370.494,211.898z"/>
	<path fill-rule="evenodd" clip-rule="evenodd" fill="#06ABA6" d="M403.17,212.936c-1.021-0.693-3.535,1.372-4.469,1.698
		c-2.668,0.929-5.57,1.05-8.316,0.404c-6.017-1.415-9.553-5.926-13.086-10.613c-2.431,2.331-5.092,4.519-6.805,7.474
		c2.492,3.038,6.646,4.35,10.231,5.572C388.109,219.988,398.672,221.188,403.17,212.936
		C402.658,212.589,401.171,216.6,403.17,212.936z"/>
	<path fill-rule="evenodd" clip-rule="evenodd" fill="#1F1C1D" d="M361.053,205.467c1.661-3.774-3.473-1.049-4.471-0.091
		c-2.227,2.139-2.179,4.628-1.256,7.41C356.136,209.19,357.651,206.523,361.053,205.467
		C361.787,203.799,357.651,206.523,361.053,205.467z"/>
	<path fill-rule="evenodd" clip-rule="evenodd" fill="#1F1C1D" d="M353.095,192.086c3.134-2.31-2.943-3.252-4.082-3.206
		c-2.87,0.116-4.717,1.562-5.501,4.325C346.702,191.435,349.801,190.434,353.095,192.086
		C354.794,190.833,349.801,190.434,353.095,192.086z"/>
	<path fill-rule="evenodd" clip-rule="evenodd" fill="#1F1C1D" d="M357.46,199.719c0.016-4.032-5.676-2.459-7.913-1.563
		c-2.92,1.17-3.801,4.003-4.163,6.894C348.527,200.228,352.631,199.015,357.46,199.719
		C357.465,198.429,352.631,199.015,357.46,199.719z"/>
	<path fill-rule="evenodd" clip-rule="evenodd" fill="#1F1C1D" d="M350.893,159.504c1.988-4.585,4.964-9.886,5.323-14.926
		c-1.656-0.045-6.278,2.583-6.35,4.518c2.425,1.101,2.008,4.731-0.502,6.322c-3.799,2.412-7.472-2.959-11.268-0.739
		C340.893,159.075,346.219,159.311,350.893,159.504C351.335,158.483,349.9,159.463,350.893,159.504z"/>
	<path fill-rule="evenodd" clip-rule="evenodd" fill="#FBFBFB" d="M379.158,144.272c-0.543-4.556-0.912-4.966-3.598-1.006
		c-2.443,3.607-5.495,6.834-9.208,9.149c-3.664,2.285-7.847,3.565-12.14,3.921c-5.079,0.419-4.084,11.183-3.901,15.218
		c0.247,5.532,1.743,10.78,2.24,16.229c0.119,1.299,1.206,2.067,1.274,3.188c-1.123,0.904-0.956,1.597,0.499,2.076
		c0.661,0.73,1.067,1.58,1.221,2.552c0.584,3.384,8.31,15.255,12.971,14.32c-5.462-12.133-10.008-22.116-7.761-35.966
		C362.692,162.018,368.092,150.243,379.158,144.272C378.987,142.841,372.247,148.001,379.158,144.272z"/>
	<path fill-rule="evenodd" clip-rule="evenodd" fill="#020404" d="M402.306,152.042c6.235,7.884,10.86,16.985,13.081,26.813
		c2.518,11.146,0.856,21.813,0.283,33.038c-2.042,0.085-1.366-13.719-1.592-15.928c-2.383,5.314-4.707,10.842-8.972,14.963
		c-0.448,0.107-2.004,1.851-1.953,2.026c-3.062,0.311-5.894,2.524-9.409,2.492c-4.896-0.044-9.422-2.529-12.648-6.117
		c-7.46-8.297-9.98-20.438-7.947-31.305c7.84,2.981,15.373-2.609,19.329-9.128c1.876-3.092,3.588-7.325,3.273-11.016
		c-0.259-3.024,0.385-2.611,2.854-4.423C399.448,152.839,401.048,151.003,402.306,152.042
		C411.537,163.715,401.547,151.416,402.306,152.042z M391.024,188.822c4.904-0.112,9.264-8.58,2.572-8.468
		C388.796,180.433,384.605,188.966,391.024,188.822C394.02,188.753,388.979,188.868,391.024,188.822z"/>
	<path fill-rule="evenodd" clip-rule="evenodd" fill="#FBFBFB" d="M403.17,212.936c-1.999,3.664-5.89,4.695-9.16,6.588
		c4.578,0.444,19.41,0.498,21.204-4.933c0.886-2.683-0.582-2.502-0.623-4.828c-0.079-4.602-0.046-9.213-0.513-13.798
		C411.604,201.484,407.712,210.361,403.17,212.936z"/>
	<path fill-rule="evenodd" clip-rule="evenodd" fill="#FBFBFB" d="M373.148,178.024c11.022,4.192,26.1-10.92,22.163-22.181
		c-1.295,0.558-2.59,1.117-3.885,1.675c-0.394-3.102,3.021-6.379-1.129-7.608c-5.402-1.601-6.286,2.052-8.939,6.026
		c-0.34-1.411-0.681-2.823-1.021-4.235C372.954,156.924,363.783,170.105,373.148,178.024
		C377.863,179.817,371.446,176.584,373.148,178.024z"/>
</g>
<g id="mouth-open">
	<path fill-rule="evenodd" clip-rule="evenodd" fill="#AD2170" d="M437.975,227.996c-7.143-1.5-10.153-7.603-11.589-14.181
		c-2.063,4.993-3.813,10.141-4.729,15.478c-0.543,3.159,1.476,3.039,2.554,5.829c1.131,2.92,1.449,6.187,1.26,9.292
		c-0.079,1.289-1.462,5.019-0.375,6.01c1.191,1.086,3.25-5.099,3.743-6.11C431.568,238.706,434.682,233.292,437.975,227.996
		C430.72,226.474,433.438,235.291,437.975,227.996z"/>
	<path fill-rule="evenodd" clip-rule="evenodd" fill="#DD6638" d="M424.684,249.636c1.18-5.061,2.174-14.967-3.357-18.14
		C419.986,237.998,420.002,244.25,424.684,249.636C425.696,245.292,420.002,244.25,424.684,249.636z"/>
</g>
<g id="mouth">
	<path fill-rule="evenodd" clip-rule="evenodd" fill="#FEB2CC" d="M452.199,209.579c-1.82-0.182-6.234-3.634-6.704-1.134
		C444.801,212.159,450.795,211.103,452.199,209.579C450.35,209.394,450.183,211.769,452.199,209.579z"/>
	<g>
		<g>
			<path fill="#FDB1CB" d="M396,255.167c10.384,0.789,20.508-1.994,30.833-2.5c1.192-0.059,2.136-1.662,1.061-2.561
				c-11.212-9.375-5.527-27.595,0.356-38.42c-0.932-0.252-1.863-0.505-2.795-0.757c0.765,6.221,1.696,12.392,7.621,15.707
				c6.959,3.894,15.749,1.382,21.719-3.082c5.459-4.083,7.793-11.218,6.344-17.81c-0.557-2.527-2.817-5.237-5.414-5.843
				c-2.715-0.633-5.747-0.283-8.301-1.528c-3.496-1.705-5.034-5.702-6.311-9.104c-0.673-1.794-3.573-1.017-2.893,0.798
				c1.89,5.036,4.059,9.126,9.03,11.55c3.425,1.67,7.69-0.393,10.319,3.314c1.977,2.786,0.933,7.245-0.01,10.17
				c-2.466,7.652-12.556,11.494-19.881,10.006c-7.256-1.473-8.449-7.873-9.225-14.177c-0.167-1.358-2.011-2.201-2.795-0.757
				c-6.512,11.981-12.223,31.743,0.112,42.056c0.354-0.854,0.707-1.707,1.061-2.561c-10.322,0.505-20.455,3.288-30.833,2.5
				C394.069,252.02,394.084,255.021,396,255.167L396,255.167z"/>
		</g>
	</g>
</g>
<g id="mouth-closed" display="none">
	<g display="inline">
		<path fill-rule="evenodd" clip-rule="evenodd" fill="#FEE4EC" d="M449.718,211.819c-2.404-1.409-5.65-1.591-8.364-0.576
			c-0.081-0.025-0.158-0.058-0.24-0.08c-0.866-0.238-1.722-0.345-2.552-0.336c-0.088-4.844-4.669-8.794-9.372-8.794
			c-1.722,0-3.258,0.438-4.566,1.196c-3.153,0.807-5.718,3.312-6.847,6.612c-1.42,4.158-3.69,8.672-6.324,11.802
			c-1.007,1.197-1.957,2.425-2.916,3.665c0.319-0.561,0.122-0.407-0.587,0.461c0.582-0.322,0.356-0.169-0.678,0.458
			c-2.124,1.356-4.081,1.824-5.948,3.781c-0.612,0.643-1.106,1.31-1.498,1.991c-0.976,0.052-1.952,0.122-2.927,0.239
			c-4.213,0.508-7.832,2.496-9.038,6.882c-1.225,4.451,1.479,10.804,6.547,11.532c5.761,0.827,11.238,2.651,17.08,3.082
			c0.104,0.008,0.208,0.006,0.313,0.013c-7.037,2.307-11.16,4.016-16.623,4.916c-1.155,0.19-0.889,2.175,0.276,2.046
			c3.798-0.421,7.632-0.146,11.379-0.99c1.833-0.414,3.575-1.145,5.308-1.916c0.171,0.225,0.436,0.374,0.788,0.36
			c0.238-0.01,0.473-0.023,0.709-0.036c0.071,0.013,0.136,0.037,0.218,0.036c0.487-0.004,0.974-0.017,1.459-0.03
			c0.229,0.267,0.579,0.43,1.017,0.34c0.416-0.06,0.82-0.165,1.217-0.292c0.361-0.087,0.719-0.171,1.078-0.249
			c0.357-0.035,0.716-0.064,1.073-0.108c1.929,0.897,4.137,1.154,6.254,0.467c1.368-0.445,2.678-1.023,3.975-1.64
			c2.786-1.323,4.246-4.109,4.505-7.029c2.24-1.573,3.472-4.454,3.571-7.223c0.237-0.598,0.416-1.229,0.539-1.878
			c2.815-2.386,5.248-4.967,7.316-7.866c0.048-0.04,0.094-0.083,0.143-0.124c2.793-2.284,5.507-4.523,7.08-7.887
			C455.244,220.016,454.422,214.575,449.718,211.819z"/>
		<g>
			<path fill="#FDB1CB" d="M458.352,211.407c-0.024,0.021,0.187,0.274,0.268,1.008c0.078,0.694-0.121,1.841-0.691,3.007
				c-0.265,0.588-0.583,1.202-0.832,1.813c-0.115,0.306-0.241,0.607-0.296,0.88c-0.044,0.142-0.043,0.267-0.062,0.391
				c-0.005,0.117-0.073,0.375-0.108,0.562c-0.083,0.397-0.17,0.808-0.259,1.23c-0.113,0.452-0.2,0.907-0.372,1.433
				c-0.129,0.516-0.464,1.004-0.842,1.468c-0.411,0.461-0.758,0.991-1.234,1.456c-0.439,0.498-0.965,0.91-1.487,1.346
				c-0.376,0.305-0.76,0.616-1.149,0.932c-0.83,0.671-1.688,1.364-2.57,2.077c-0.919,0.704-1.707,1.466-2.547,2.236
				c-0.838,0.769-1.695,1.555-2.566,2.354c-0.916,0.856-1.848,1.726-2.791,2.607c-1.006,0.868-2.001,1.797-3.048,2.637
				c-1.045,0.846-2.079,1.721-3.188,2.521l-1.643,1.228l-1.702,1.161c-2.264,1.559-4.659,2.938-7.06,4.214
				c-1.23,0.626-2.398,1.162-3.688,1.772c-1.172,0.497-2.33,0.988-3.47,1.471c-1.117,0.492-2.36,0.915-3.5,1.361
				c-0.578,0.219-1.151,0.435-1.717,0.649c-0.569,0.205-1.144,0.371-1.703,0.554c-1.124,0.355-2.218,0.702-3.275,1.036
				c-1.093,0.263-2.148,0.516-3.162,0.76c-0.506,0.128-1.008,0.221-1.484,0.38l-0.089,0.03l-0.022,0.007
				c0.153-0.023-0.233,0.041-0.201,0.036l-0.043,0.01l-0.173,0.04c-0.115,0.023-0.229,0.042-0.345,0.052
				c-0.231,0.018-0.464,0-0.696-0.034c-0.462-0.059-0.913-0.116-1.352-0.171c-0.422-0.044-0.945-0.165-1.382-0.242
				c-0.896-0.187-1.748-0.316-2.455-0.531c-0.702-0.21-1.347-0.404-1.929-0.578c-1.161-0.337-2.043-0.663-2.664-0.859
				c-0.617-0.214-0.946-0.329-0.946-0.329s0.331-0.104,0.951-0.301c0.615-0.178,1.548-0.476,2.696-0.78
				c0.572-0.158,1.206-0.333,1.896-0.523c0.686-0.201,1.337-0.421,2.049-0.647c0.365-0.127,0.678-0.197,1.102-0.376
				c0.409-0.164,0.83-0.333,1.263-0.506c0.215-0.091,0.436-0.167,0.663-0.208c0.114-0.02,0.23-0.03,0.348-0.037l0.177-0.005
				l0.044-0.001c0.047-0.006-0.324,0.054-0.157,0.027l0.021-0.003l0.083-0.011c0.444-0.061,0.886-0.193,1.343-0.296
				c0.911-0.218,1.861-0.444,2.844-0.679c0.977-0.31,1.987-0.63,3.025-0.96c0.518-0.169,1.05-0.321,1.575-0.51
				c0.523-0.198,1.052-0.398,1.587-0.601c1.078-0.424,2.146-0.773,3.294-1.278c1.14-0.483,2.297-0.974,3.47-1.471
				c1.007-0.487,2.186-1.022,3.27-1.576c2.186-1.165,4.374-2.42,6.459-3.857l1.568-1.068l1.521-1.139
				c1.025-0.738,1.99-1.557,2.965-2.345c0.98-0.786,1.868-1.621,2.794-2.414c0.918-0.857,1.824-1.704,2.717-2.537
				c0.952-0.874,1.889-1.732,2.806-2.573c0.918-0.838,1.814-1.688,2.7-2.364c0.882-0.713,1.74-1.406,2.57-2.077
				c0.439-0.355,0.872-0.704,1.296-1.046c0.257-0.236,0.544-0.433,0.753-0.688c0.234-0.226,0.442-0.498,0.604-0.789
				c0.14-0.33,0.31-0.617,0.6-0.901c0.282-0.255,0.563-0.6,0.844-0.905c0.294-0.347,0.572-0.695,0.851-0.998
				c0.149-0.172,0.254-0.269,0.434-0.495c0.181-0.209,0.358-0.425,0.537-0.587c0.355-0.356,0.694-0.613,1.021-0.844
				c0.648-0.452,1.206-0.771,1.674-1.077c0.926-0.597,1.547-1.124,1.85-1.651C458.277,211.799,458.34,211.383,458.352,211.407z"/>
		</g>
		<path fill-rule="evenodd" clip-rule="evenodd" fill="none" stroke="#FDB1CB" stroke-width="6" stroke-miterlimit="10" d="
			M447.363,226.036c-4.176,2.858-10.285,2.464-13.814-0.391c-1.415-1.145-5.984-1.295-5.614-6.313"/>
	</g>
</g>
<g id="Tongue_1_" display="none">
	<g id="Tongue" display="inline">
		<g>
			<path fill="#CC0000" d="M450.06,229.717c3.208,2.493,4.902,7.833,2.375,10.312c-2.688,2.917-9.152,1.167-9.645-3.083
				c-0.181-1.368,0.701-2.507,0.375-4.09c-0.431-1.951-1.875-3.625-3.521-5.375C443.65,227.828,446.15,226.641,450.06,229.717z"/>
		</g>
		<g>
		</g>
	</g>
</g>
</svg>
